<?xml version="1.0" standalone="no"?><!DOCTYPE svg PUBLIC "-//W3C//DTD SVG 1.1//EN" "http://www.w3.org/Graphics/SVG/1.1/DTD/svg11.dtd"><svg t="1514958612446" class="icon" style="" viewBox="0 0 1024 1024" version="1.1" xmlns="http://www.w3.org/2000/svg" p-id="2226" xmlns:xlink="http://www.w3.org/1999/xlink" width="200" height="200"><defs><style type="text/css"></style></defs><path d="M800.059733 230.656c31.069867 0 56.337067-25.258667 56.337067-56.311467 0-31.0528-25.2672-56.311467-56.337067-56.311466s-56.328533 25.258667-56.328533 56.311466a56.379733 56.379733 0 0 0 56.328533 56.311467z" fill="#3ECCE5" p-id="2227"></path><path d="M749.124267 234.4448a78.404267 78.404267 0 0 0 50.935466 18.730667c43.485867 0 78.830933-35.370667 78.830934-78.830934s-35.370667-78.830933-78.830934-78.830933-78.830933 35.370667-78.830933 78.830933a78.7968 78.7968 0 0 0 27.895467 60.100267z m50.935466-116.411733c31.069867 0 56.337067 25.258667 56.337067 56.311466 0 31.035733-25.2672 56.311467-56.337067 56.311467s-56.328533-25.258667-56.328533-56.311467a56.379733 56.379733 0 0 1 56.328533-56.311466zM174.9504 158.344533h461.149867v32H174.9504v-32z" fill="#393D3F" p-id="2228"></path><path d="M985.6 301.201067H47.650133V47.470933H985.6v253.730134z m-903.816533-34.133334H951.466667V81.604267H81.783467v185.463466z" fill="#393D3F" p-id="2229"></path><path d="M800.059733 568.32c31.069867 0 56.337067-25.258667 56.337067-56.311467 0-31.0528-25.2672-56.311467-56.337067-56.311466s-56.328533 25.258667-56.328533 56.311466a56.379733 56.379733 0 0 0 56.328533 56.311467z" fill="#3ECCE5" p-id="2230"></path><path d="M749.124267 572.100267a78.3616 78.3616 0 0 0 50.935466 18.730666c43.485867 0 78.830933-35.370667 78.830934-78.830933s-35.370667-78.830933-78.830934-78.830933-78.830933 35.370667-78.830933 78.830933a78.762667 78.762667 0 0 0 27.895467 60.100267z m50.935466-116.4032c31.069867 0 56.337067 25.258667 56.337067 56.311466 0 31.035733-25.2672 56.311467-56.337067 56.311467s-56.328533-25.258667-56.328533-56.311467a56.379733 56.379733 0 0 1 56.328533-56.311466zM174.9504 496.008533h461.149867v32H174.9504v-32z" fill="#393D3F" p-id="2231"></path><path d="M985.6 638.865067H47.650133V385.134933H985.6v253.730134z m-903.816533-34.133334H951.466667V419.268267H81.783467v185.463466z" fill="#393D3F" p-id="2232"></path><path d="M800.059733 903.611733c31.069867 0 56.337067-25.258667 56.337067-56.311466s-25.2672-56.32-56.337067-56.32-56.328533 25.2672-56.328533 56.32 25.258667 56.311467 56.328533 56.311466z" fill="#3ECCE5" p-id="2233"></path><path d="M749.124267 907.392a78.3616 78.3616 0 0 0 50.935466 18.730667c43.485867 0 78.830933-35.370667 78.830934-78.830934s-35.370667-78.8224-78.830934-78.8224-78.830933 35.370667-78.830933 78.8224a78.762667 78.762667 0 0 0 27.895467 60.100267z m50.935466-116.411733a56.388267 56.388267 0 0 1 56.337067 56.32c0 31.035733-25.2672 56.311467-56.337067 56.311466s-56.328533-25.258667-56.328533-56.311466 25.258667-56.32 56.328533-56.32zM174.9504 831.300267h461.149867v32H174.9504v-32z" fill="#393D3F" p-id="2234"></path><path d="M985.6 974.1568H47.650133V720.4352H985.6v253.7216z m-903.816533-34.133333H951.466667V754.568533H81.783467v185.454934z" fill="#393D3F" p-id="2235"></path></svg>